<svg xmlns="http://www.w3.org/2000/svg" viewBox="0 0 331.5 178.4"><path d="M239.1 53.2c5.7-11.5 9.4-23.6 11.3-36.2H9.6C10.8 57.8 26 92.9 55.2 122.1c11.4 11.4 23.7 20.6 36.8 27.7 15.2-2 30.1-4.8 44.9-8.5 14.5-3.5 28.1-9.3 40.6-17.4 13.2-8.5 25-18.8 35.2-30.8 10.5-12.2 19.3-25.5 26.4-39.9z" fill="#b46c6c"/><path d="M313.7 19.7c.1-.9.2-1.8.2-2.7h-63.5c-1.9 12.6-5.7 24.7-11.3 36.2-7 14.4-15.8 27.7-26.4 39.9-10.3 12-22 22.3-35.2 30.8-12.5 8.1-26.1 13.9-40.6 17.4-14.7 3.7-29.7 6.5-44.9 8.5 13 7.1 26.9 12.1 41.6 15 1.6.3 3.2.6 4.9.8 4.2.7 8.4 1.2 12.6 1.6 1 .1 1.9.2 2.9.2 3.8.3 7.6.4 11.5.4 7.7 0 15.2-.5 22.5-1.5 8.2-2 16.3-4.5 24.3-7.4 12.2-4.4 23.5-10.2 34.1-17.4 2.2-1.5 4.3-3 6.4-4.6 12.3-9.4 22.4-20.7 30.4-34 7.5-12.5 14-25.5 19.5-38.9 5.8-14.3 9.5-29 11-44.3z" fill="#9f4329"/><path d="M313.9 17h7.5c.1-1.6.1-3.2.1-4.8H9.5c0 1.6 0 3.2.1 4.8h304.3z" fill="#1c1615"/><path d="M321.4 17h-7.5c0 .9-.1 1.8-.2 2.7-1.5 15.3-5.2 30-11.1 44.3-5.5 13.4-12 26.4-19.5 38.9-8 13.3-18.1 24.6-30.4 34-2.1 1.6-4.2 3.2-6.4 4.6-10.5 7.2-21.9 13-34.1 17.4-8 2.9-16.1 5.4-24.3 7.4 33.5-4.5 62.8-19.2 87.8-44.2C305 92.9 320.2 57.8 321.4 17z" fill="#e0d3c9"/><path d="M188 166.3c33.5-4.5 62.8-19.2 87.8-44.2C305 92.9 320.2 57.8 321.4 17c0-1.6.1-3.2.1-4.8H9.5c0 1.6 0 3.2.1 4.8M92 149.9c13 7.1 26.9 12 41.6 14.9 1.6.3 3.2.6 4.9.9 4.2.7 8.4 1.2 12.7 1.5.9.1 1.9.1 2.8.2 3.8.2 7.6.4 11.5.4 7.7 0 15.2-.5 22.5-1.5M9.6 17C10.8 57.8 26 92.9 55.2 122.1c11.4 11.4 23.7 20.6 36.8 27.8" fill="none" stroke="#382c2a" stroke-width="3" stroke-linecap="round" stroke-linejoin="round"/><path d="M135.6 109.1c8.8-8.8 13.1-19.4 13.1-31.7 0-12.4-4.4-23-13.1-31.7-8.7-8.8-19.2-13.1-31.7-13.1-12.4 0-23 4.4-31.7 13.1S59.1 65 59.1 77.4c0 12.3 4.4 22.8 13.1 31.7 8.7 8.8 19.2 13.1 31.7 13.1 12.4 0 23-4.4 31.7-13.1z" fill="#f99"/></svg>