<svg version="1.1" id="Layer_1" xmlns="http://www.w3.org/2000/svg" x="0" y="0" viewBox="0 0 331.5 178.4" xml:space="preserve"><style>.st1{fill:#e0d3c9}</style><path d="M239 57.2c-5.4-12.8-11.9-25-19.4-36.6-16.8-6.1-34.9-9.2-54.2-9.2-43.1 0-79.8 15.2-110.3 45.7S9.4 124.3 9.4 167.4v.4h243.2c1-6.5 1.7-13.1 2.1-19.8 1-15.8.1-31.4-2.8-47-2.6-15.1-7-29.7-12.9-43.8z" fill="#90c0cc"/><path class="st1" d="M284.7 66.9c2.8 4.9 5.5 9.9 8 15.1 14.1 29.5 20.9 58.1 20.4 85.7h8.2v-.4c0-38.5-12.2-72-36.6-100.4z"/><path d="M292.7 82c-2.5-5.2-5.1-10.3-8-15.1-2.9-3.4-5.9-6.6-9.1-9.8-16.8-16.8-35.5-28.9-56-36.5 7.5 11.6 14 23.8 19.4 36.6 6 14.1 10.3 28.7 13.1 43.7 2.8 15.6 3.8 31.2 2.8 47-.4 6.7-1.1 13.3-2.1 19.8h60.4c.4-27.6-6.4-56.2-20.5-85.7z" fill="#8698cc"/><path id="CatchTop_0_Layer0_0_1_STROKES" d="M284.7 66.9c-2.9-3.4-5.9-6.6-9.1-9.8-16.8-16.8-35.5-28.9-56-36.5m33 147.1h68.6v-.4c0-38.5-12.2-72-36.6-100.4m-65-46.3c-16.8-6.2-34.9-9.2-54.2-9.2-43.1 0-79.8 15.2-110.3 45.7S9.4 124.3 9.4 167.4v.4h243.2" fill="none" stroke="#382c2a" stroke-width="3" stroke-linecap="round" stroke-linejoin="round"/><path class="st1" d="M102.5 42.1c-12 0-22.3 4.2-30.9 12.8-8.5 8.5-12.7 18.8-12.7 30.8s4.2 22.3 12.7 30.8 18.8 12.8 30.9 12.8c12 0 22.3-4.2 30.8-12.8 8.6-8.6 12.8-18.8 12.8-30.8s-4.2-22.3-12.8-30.8c-8.6-8.5-18.8-12.8-30.8-12.8zM186.2 152.3c3.4-3.4 5-7.4 5-12.2s-1.7-8.8-5-12.2c-3.4-3.4-7.4-5-12.2-5-4.8 0-8.8 1.7-12.2 5-3.4 3.4-5 7.4-5 12.2 0 4.7 1.7 8.8 5 12.2 3.4 3.4 7.4 5 12.2 5 4.8 0 8.9-1.7 12.2-5z"/></svg>