<svg xmlns="http://www.w3.org/2000/svg" viewBox="0 0 50 50"><g stroke="#382c2a" stroke-width="2" stroke-linecap="round" stroke-linejoin="round" stroke-miterlimit="10"><path d="M43 32c.3-.8 1.1-1.5 1.8-1.7l2.3-.7c.8-.2 1.4-1.1 1.4-1.8V24c0-.8-.6-1.5-1.4-1.7l-2.1-.5c-.8-.2-1.6-.9-2-1.6l-.9-1.9c-.3-.7-.2-1.8.2-2.4l1.5-2.2c.4-.7.3-1.6-.2-2.2L41 8.6c-.5-.6-1.5-.7-2.1-.2l-2.2 1.5c-.7.4-1.7.6-2.5.3l-1.9-.8c-.7-.3-1.4-1.1-1.5-1.9l-.5-2.6c-.1-.8-.9-1.4-1.6-1.4h-4.3c-.8 0-1.5.6-1.6 1.4l-.5 2.7c-.1.8-.8 1.6-1.5 1.9l-2.2.5c-.7.3-1.8.1-2.5-.3l-2.5-1.5c-.7-.4-1.6-.3-2.2.2L8.8 11c-.6.6-.7 1.5-.3 2.2l1.7 2.7c.4.7.5 1.8.2 2.5l-.8 1.8c-.3.7-1.2 1.5-1.9 1.6l-2.5.6c-.8.2-1.4.9-1.4 1.7V28c0 .8.6 1.6 1.4 1.8l2.5.7c.8.2 1.6.9 2 1.6l1 2.2c.3.7.2 1.8-.3 2.3l-1.6 1.9c-.5.6-.5 1.5.1 2.1l2.8 2.9c.5.6 1.5.7 2.1.2l2.3-1.6c.7-.4 1.7-.5 2.4-.2l2 1c.7.3 1.4 1.2 1.5 2l.4 2.4c.1.8.9 1.4 1.6 1.4h3.9c.8 0 1.5-.6 1.7-1.4l.7-2.8c.2-.8.9-1.5 1.7-1.8l2.3-.7c.8-.2 1.9-.1 2.6.3l1.6.9c.7.4 1.7.2 2.2-.3l2.8-2.8c.6-.6.6-1.5.2-2.2l-1.2-1.7c-.4-.7-.6-1.7-.3-2.5.1.2.8-1.7.8-1.7zm-16.7 3.2c-5.1 0-9.2-4.1-9.2-9.2s4.1-9.2 9.2-9.2 9.2 4.1 9.2 9.2-4.1 9.2-9.2 9.2z" fill="#382c2a"/><path d="M41.1 30c.3-.8 1.1-1.5 1.8-1.7l2.3-.7c.8-.2 1.4-1.1 1.4-1.8V22c0-.8-.6-1.5-1.4-1.7l-2.2-.5c-.8-.2-1.6-.9-2-1.6l-.9-1.9c-.3-.7-.2-1.8.2-2.4l1.5-2.2c.4-.7.3-1.6-.2-2.2L39 6.6c-.5-.6-1.5-.7-2.1-.2l-2.2 1.5c-.7.4-1.7.6-2.5.3l-1.9-.8c-.7-.3-1.4-1.1-1.5-1.9l-.5-2.6c-.1-.8-.9-1.4-1.6-1.4h-4.3c-.8 0-1.5.6-1.6 1.4l-.5 2.7c-.1.8-.8 1.6-1.5 1.9l-2.2.5c-.7.3-1.8.1-2.5-.3l-2.5-1.5c-.6-.3-1.6-.2-2.1.3L6.9 9.1c-.6.6-.7 1.5-.3 2.2L8.3 14c.4.7.5 1.8.2 2.5l-.8 1.8c-.3.7-1.2 1.5-1.9 1.6l-2.5.6c-.8.2-1.4.9-1.4 1.7V26c0 .8.6 1.6 1.4 1.8l2.5.7c.8.2 1.6.9 2 1.6l1 2.2c.3.7.1 1.7-.3 2.3l-1.6 1.9c-.5.6-.5 1.5.1 2.1l2.8 2.9c.5.6 1.5.7 2.1.2l2.3-1.6c.7-.4 1.7-.5 2.4-.2l2 1c.7.3 1.4 1.2 1.5 2l.4 2.4c.1.8.9 1.4 1.6 1.4H26c.8 0 1.5-.6 1.7-1.4l.7-2.8c.2-.8.9-1.5 1.7-1.8l2.3-.7c.8-.2 1.9-.1 2.6.3l1.6.9c.7.4 1.7.2 2.2-.3l2.8-2.8c.6-.6.6-1.5.2-2.2l-1.2-1.7c-.4-.7-.6-1.7-.3-2.5.1.3.8-1.7.8-1.7zm-16.7 3.2c-5.1 0-9.2-4.1-9.2-9.2s4.1-9.2 9.2-9.2 9.2 4.1 9.2 9.2-4.1 9.2-9.2 9.2z" fill="#fff0e5"/></g></svg>